<svg width="159" height="189" viewBox="0 0 159 189" fill="none" xmlns="http://www.w3.org/2000/svg">
<g clip-path="url(#clip0_353_47)">
<rect x="5.91406" y="8.26953" width="147.029" height="175.293" fill="#D6FDC5"/>
<path d="M9.55859 125.664C9.76135 125.867 10.0312 126.004 10.3313 126.041C10.0312 126.004 9.76135 125.868 9.55859 125.664Z" fill="#1C4772"/>
<path d="M93.3845 164.921C92.7009 164.508 91.9461 164.301 91.1186 164.301H88.9609V173.284H91.146C91.9557 173.284 92.7009 173.086 93.3845 172.69C94.0681 172.277 94.6079 171.738 95.0024 171.071C95.4162 170.387 95.623 169.633 95.623 168.805C95.623 167.978 95.4162 167.224 95.0024 166.539C94.6065 165.856 94.0668 165.317 93.3845 164.921Z" fill="#1C4772"/>
<path d="M117.534 165.485C117.138 165.036 116.671 164.694 116.131 164.459C115.61 164.207 115.052 164.082 114.459 164.082C113.866 164.082 113.272 164.208 112.733 164.459C112.211 164.694 111.743 165.036 111.33 165.485C110.934 165.916 110.62 166.419 110.386 166.995C110.152 167.571 110.035 168.191 110.035 168.856C110.035 169.522 110.152 170.114 110.386 170.689C110.62 171.266 110.934 171.777 111.33 172.228C111.743 172.659 112.211 173 112.733 173.253C113.272 173.487 113.838 173.603 114.431 173.603C115.025 173.603 115.618 173.485 116.157 173.253C116.697 173 117.164 172.668 117.56 172.254C117.974 171.822 118.289 171.32 118.504 170.743C118.738 170.15 118.855 169.521 118.855 168.855C118.855 168.189 118.738 167.57 118.504 166.993C118.27 166.418 117.947 165.915 117.533 165.483L117.534 165.485Z" fill="#1C4772"/>
<path d="M94.1009 140.921C93.5392 140.585 92.9173 140.418 92.2364 140.418H90.4609V147.698H92.2583C92.9241 147.698 93.5379 147.538 94.1009 147.217C94.6626 146.883 95.1078 146.446 95.4325 145.906C95.7723 145.351 95.9435 144.739 95.9435 144.069C95.9435 143.399 95.7736 142.787 95.4325 142.233C95.1065 141.68 94.6626 141.243 94.1009 140.921Z" fill="#1C4772"/>
<path d="M93.9381 67.039C93.9381 66.7198 93.8244 66.428 93.6367 66.1992C93.8258 66.428 93.9381 66.7198 93.9381 67.039Z" fill="#1C4772"/>
<path d="M93.6364 125.57C93.394 125.863 93.0282 126.051 92.6172 126.051C93.0268 126.051 93.394 125.865 93.6364 125.57Z" fill="#1C4772"/>
<path d="M126.026 119.965C121.503 119.965 117.836 123.671 117.836 128.242C117.836 132.814 121.502 136.519 126.026 136.519C130.549 136.519 134.214 132.814 134.214 128.242C134.214 123.671 130.548 119.965 126.026 119.965Z" fill="#1C4772"/>
<path d="M155.634 0H3.19474C1.43024 0 0 1.43024 0 3.19474V185.055C0 186.82 1.43024 188.25 3.19474 188.25H155.634C157.399 188.25 158.829 186.82 158.829 185.055V3.19474C158.829 1.43024 157.399 0 155.634 0ZM99.3836 141.051C99.7973 141.969 100.006 142.945 100.006 143.98C100.006 145.014 99.7987 146.042 99.3836 146.976C98.9836 147.907 98.4219 148.732 97.6972 149.446C96.9875 150.146 96.1587 150.699 95.2107 151.106C94.2791 151.5 93.2722 151.697 92.1913 151.697H88.4184C87.7828 151.697 87.3238 151.602 87.043 151.412C86.7622 151.221 86.5841 150.975 86.5101 150.668C86.4361 150.361 86.3991 150.034 86.3991 149.684V138.381C86.3991 138.06 86.4293 137.747 86.4882 137.441C86.5471 137.136 86.7169 136.888 86.9992 136.697C87.28 136.493 87.7609 136.398 88.4417 136.414H92.2598C93.3106 136.414 94.3024 136.611 95.234 137.004C96.1655 137.397 96.9875 137.944 97.6972 138.644C98.4219 139.329 98.9849 140.13 99.3836 141.049V141.051ZM73.4777 10.4596C86.4375 10.4596 96.9423 20.7987 96.9423 33.5489C96.9423 43.74 90.2309 52.3886 80.9207 55.4518C79.5671 49.9445 77.8615 44.936 76.4464 41.2001C79.5767 40.0233 81.8002 37.0423 81.8002 33.5489C81.8002 29.0267 78.0739 25.3607 73.4777 25.3607C68.8815 25.3607 65.1552 29.0267 65.1552 33.5489C65.1552 38.0711 68.8815 41.7371 73.4777 41.7371C73.9914 41.7371 74.4928 41.6892 74.9805 41.6015C75.3984 46.3388 75.1449 51.5871 74.5038 56.6135C74.164 56.6272 73.8215 56.6368 73.4777 56.6368C60.5192 56.6368 50.013 46.2977 50.013 33.5475C50.013 20.7973 60.5179 10.4583 73.4777 10.4583V10.4596ZM49.6363 75.5888C49.3637 89.6843 53.2434 95.3888 54.6435 96.9834C53.2078 97.9999 48.3979 101.118 37.6711 105.766C27.8526 110.02 15.1737 108.939 9.17187 108.073V65.721H48.0266C49.0719 68.9774 49.7007 72.3187 49.6377 75.5888H49.6363ZM8.36085 51.1241L12.1858 42.9071C12.5557 42.1125 13.5146 41.7728 14.3133 42.1522C16.8094 43.3304 22.0892 44.7606 27.2005 44.5332C31.8351 44.3277 35.0846 37.119 20.8357 35.6532C20.237 35.5915 19.7178 35.2422 19.7178 34.6503V29.1733C19.7178 28.7595 19.8849 28.3636 20.1836 28.0718L26.0004 24.5414C26.9978 23.5605 26.2922 21.8823 24.8812 21.8823H11.709C10.8405 21.8823 10.1349 21.1946 10.124 20.3411L10.0281 12.0337C10.0199 11.1665 10.7309 10.4583 11.6131 10.4583H42.629C43.5044 10.4583 44.214 11.1569 44.214 12.0173V19.2356C44.214 19.6493 44.0469 20.0452 43.7482 20.337L37.7327 26.2511C36.9601 27.0101 37.1765 28.2951 38.1602 28.7595C41.2878 30.2281 46.7594 33.8078 46.7594 40.8576C46.7594 43.2509 46.1415 45.7922 44.799 48.1198C39.637 43.551 35.2216 40.9741 33.7969 40.1959C33.5763 40.0754 33.3105 40.0973 33.1132 40.2589C32.9804 40.3631 32.8995 40.5192 32.8872 40.6864V40.9631L33.0489 41.1357C33.8599 42.0289 37.6451 46.284 41.396 52.1502C35.8463 56.793 25.6538 58.863 9.28283 53.2448C8.39921 52.942 7.96904 51.9598 8.35948 51.1213L8.36085 51.1241ZM9.17187 124.729V109.468C20.6631 111.842 29.5308 111.678 34.464 110.794C35.6627 110.575 36.7916 110.372 37.0806 110.436C37.167 110.454 37.2724 110.476 37.3752 110.499C37.3409 110.528 37.2533 110.598 37.2533 110.598C36.9409 110.852 36.5121 111.175 35.945 111.602C35.4709 111.96 34.9024 112.387 34.2311 112.908C30.5322 115.766 18.7054 120.997 17.3683 121.586L17.282 121.626L17.2245 121.673C17.0217 121.834 16.9464 122.1 17.0217 122.343C17.0971 122.585 17.3231 122.874 17.5601 122.781C25.7853 119.663 38.1273 114.512 42.1618 112.347C44.9456 110.852 47.3197 110.783 50.8049 111.013C54.6599 111.273 59.4589 111.59 66.6895 109.668C69.9952 108.79 72.7393 107.468 74.8517 105.736V105.754C79.7439 101.741 79.8589 96.7807 79.7959 95.4518C79.8535 95.4052 79.911 95.3655 79.9631 95.3189C80.1658 95.1518 80.3453 94.9901 80.5014 94.823C81.6824 93.5983 83.2564 92.8187 84.9237 92.479L85.6237 92.3352L85.7799 92.2954L85.884 92.2091C86.0347 92.0817 86.1155 91.8968 86.1046 91.7009L86.0635 91.3776L82.9427 89.3336C80.5467 84.4373 78.9082 83.577 74.5956 83.1962C73.2174 83.0742 71.857 83.5537 70.5556 84.6223C69.5486 85.4484 68.7376 86.4937 68.165 87.3773C67.7252 84.6689 65.9772 78.9589 59.9398 67.3348C59.6562 66.7896 59.3671 66.2525 59.0726 65.7237H72.8913C72.4872 67.4951 72.0502 69.1568 71.5981 70.6638C70.1514 75.4915 68.7267 78.7657 67.6554 80.8439C68.0773 82.0221 68.4308 83.1071 68.6979 84.0894C68.7787 84.3949 68.8541 84.6785 68.9185 84.9442C69.4103 84.3154 69.9952 83.6798 70.661 83.1318C72.0789 81.9714 73.5722 81.4454 75.1066 81.5837C78.1054 81.8495 79.911 82.3632 81.5317 84.2058C83.4756 78.726 83.6126 72.2077 82.8345 65.7251H93.938V126.055H9.1705V124.735L9.17187 124.729ZM75.6929 88.5349C75.6929 87.9061 76.2039 87.3978 76.8327 87.3978C77.4615 87.3978 77.9725 87.9075 77.9725 88.5349C77.9725 89.1623 77.4615 89.672 76.8327 89.672C76.2039 89.672 75.6929 89.1623 75.6929 88.5349ZM48.7499 138.423V149.712C48.7499 150.031 48.7212 150.345 48.665 150.65C48.6075 150.956 48.4444 151.21 48.1732 151.413C47.9019 151.604 47.4389 151.698 46.7827 151.698C46.1265 151.698 45.6853 151.604 45.4141 151.413C45.1428 151.21 44.9798 150.954 44.9223 150.65C44.8647 150.33 44.8373 150.009 44.8373 149.69V138.401C44.8373 138.081 44.8661 137.768 44.9223 137.463C44.9798 137.157 45.1428 136.909 45.4141 136.72C45.6853 136.516 46.1484 136.415 46.8046 136.415C47.4608 136.415 47.917 136.516 48.1732 136.72C48.4444 136.909 48.6075 137.157 48.665 137.463C48.7225 137.768 48.7499 138.089 48.7499 138.423ZM9.23625 138.437C9.23625 138.1 9.26502 137.778 9.32393 137.47C9.38284 137.162 9.55134 136.912 9.82945 136.722C10.1075 136.516 10.5843 136.414 11.2583 136.414C11.9323 136.414 12.4091 136.516 12.6872 136.722C12.9653 136.912 13.1338 137.162 13.1927 137.47C13.2516 137.778 13.2804 138.107 13.2804 138.459V144.594C13.2804 145.077 13.3612 145.583 13.5215 146.111C13.6831 146.639 13.9612 147.094 14.3572 147.475C14.7681 147.84 15.3394 148.024 16.0723 148.024C16.6285 148.024 17.1121 147.884 17.5231 147.606C17.9341 147.312 18.2478 146.909 18.4684 146.396C18.7027 145.869 18.8205 145.261 18.8205 144.572V138.326C18.8205 138.004 18.8492 137.703 18.9082 137.425C18.9808 137.131 19.1575 136.889 19.4356 136.699C19.7137 136.508 20.1836 136.412 20.8425 136.412C21.5015 136.412 21.9851 136.515 22.2495 136.72C22.5276 136.926 22.6961 137.182 22.755 137.49C22.8139 137.799 22.8427 138.121 22.8427 138.458V144.636C22.8427 145.516 22.6961 146.395 22.4029 147.275C22.1097 148.14 21.67 148.938 21.0836 149.671C20.5124 150.388 19.8014 150.968 18.952 151.408C18.1026 151.847 17.1204 152.067 16.0066 152.067C14.8928 152.067 13.9105 151.847 13.0612 151.408C12.2255 150.953 11.5227 150.36 10.9514 149.627C10.3802 148.894 9.94726 148.087 9.65409 147.209C9.37599 146.329 9.23625 145.457 9.23625 144.592V138.436V138.437ZM23.5605 175.952C23.5249 176.472 23.1386 177.04 22.4002 177.651C21.8604 178.082 21.4015 178.352 21.0247 178.459C20.6466 178.567 20.2959 178.522 19.9726 178.325C19.6493 178.145 19.289 177.821 18.8931 177.353L14.1722 171.986V175.789C14.1722 176.185 14.1366 176.57 14.064 176.949C13.9927 177.326 13.7859 177.641 13.4434 177.892C13.1023 178.127 12.5173 178.242 11.6898 178.242C10.8624 178.242 10.3048 178.126 9.9637 177.892C9.62258 177.64 9.41572 177.326 9.34311 176.949C9.27187 176.552 9.23489 176.157 9.23489 175.761V161.815C9.23489 161.419 9.2705 161.033 9.34311 160.655C9.41572 160.278 9.62121 159.971 9.9637 159.738C10.3048 159.486 10.8898 159.362 11.7172 159.362C12.5447 159.362 13.1201 159.488 13.4434 159.738C13.7845 159.973 13.9914 160.278 14.064 160.655C14.1366 161.032 14.1722 161.429 14.1722 161.843V165.565L18.8657 160.197C19.2794 159.747 19.6657 159.433 20.026 159.253C20.3863 159.074 20.7549 159.037 21.1316 159.145C21.5097 159.253 21.9234 159.523 22.3728 159.954C23.1098 160.618 23.4879 161.203 23.5057 161.707C23.5235 162.21 23.2276 162.787 22.6153 163.435L17.3286 168.829L22.6427 174.144C23.3085 174.808 23.614 175.411 23.5592 175.951L23.5605 175.952ZM33.7201 175.79C33.7201 176.186 33.6845 176.571 33.6119 176.951C33.5407 177.327 33.3338 177.642 32.9913 177.895C32.6502 178.129 32.0652 178.244 31.2378 178.244C30.4103 178.244 29.8527 178.127 29.5116 177.895C29.1705 177.641 28.9636 177.327 28.891 176.951C28.8198 176.553 28.7828 176.159 28.7828 175.763V161.817C28.7828 161.421 28.8184 161.034 28.891 160.656C28.9636 160.28 29.1691 159.973 29.5116 159.74C29.8527 159.488 30.4377 159.363 31.2652 159.363C32.0926 159.363 32.668 159.489 32.9913 159.74C33.3324 159.974 33.5393 160.28 33.6119 160.656C33.6831 161.033 33.7201 161.43 33.7201 161.844V175.79ZM37.4012 151.567C37.1533 151.494 36.9423 151.342 36.7669 151.108L31.1063 143.63V149.709C31.1063 150.03 31.0775 150.343 31.0186 150.649C30.9597 150.956 30.7925 151.209 30.5158 151.413C30.2391 151.604 29.7651 151.698 29.0952 151.698C28.4253 151.698 27.9951 151.604 27.7184 151.413C27.4416 151.209 27.2745 150.954 27.2156 150.649C27.158 150.342 27.1279 150.021 27.1279 149.686V138.338C27.1279 138.018 27.1567 137.711 27.2156 137.42C27.2745 137.129 27.4416 136.889 27.7184 136.699C28.0102 136.509 28.4828 136.415 29.139 136.415C29.7952 136.415 30.2172 136.496 30.45 136.655C30.6829 136.815 30.8939 137.019 31.0843 137.267L36.5477 144.614V138.338C36.5477 138.018 36.5765 137.711 36.6354 137.42C36.708 137.129 36.8834 136.889 37.1601 136.699C37.4368 136.509 37.9026 136.415 38.5588 136.415C39.215 136.415 39.6959 136.516 39.9576 136.72C40.2343 136.909 40.4014 137.157 40.4603 137.464C40.5192 137.77 40.548 138.092 40.548 138.426V149.709C40.548 150.03 40.5192 150.343 40.4603 150.649C40.4014 150.956 40.2343 151.209 39.9576 151.413C39.6808 151.604 39.2068 151.698 38.5369 151.698C38.041 151.698 37.6629 151.654 37.3998 151.565L37.4012 151.567ZM55.5764 175.79C55.5764 176.186 55.5408 176.572 55.4682 176.951C55.397 177.327 55.1901 177.644 54.8476 177.895C54.5065 178.129 53.9215 178.244 53.0941 178.244C52.4831 178.244 52.0146 178.19 51.6912 178.082C51.3857 177.992 51.1241 177.804 50.909 177.516L43.9222 168.291V175.79C43.9222 176.186 43.8866 176.572 43.814 176.951C43.7414 177.327 43.5359 177.644 43.1934 177.895C42.8523 178.129 42.2673 178.244 41.4398 178.244C40.6124 178.244 40.0822 178.127 39.7411 177.895C39.4 177.642 39.1931 177.327 39.1205 176.951C39.0493 176.574 39.0123 176.178 39.0123 175.763V161.763C39.0123 161.367 39.0479 160.991 39.1205 160.632C39.1931 160.273 39.3986 159.975 39.7411 159.741C40.1 159.507 40.685 159.39 41.4946 159.39C42.3043 159.39 42.8249 159.49 43.1126 159.688C43.4003 159.885 43.6605 160.137 43.8948 160.443L50.6377 169.506V161.765C50.6377 161.369 50.6734 160.992 50.746 160.633C50.8364 160.274 51.0515 159.977 51.3926 159.743C51.7337 159.508 52.3091 159.392 53.1187 159.392C53.9284 159.392 54.5216 159.519 54.8449 159.77C55.186 160.004 55.3929 160.31 55.4655 160.686C55.5381 161.063 55.5737 161.459 55.5737 161.873V175.792L55.5764 175.79ZM59.5384 151.698C58.8931 151.698 58.4314 151.604 58.152 151.415C57.8739 151.21 57.704 150.964 57.6464 150.672C57.6026 150.367 57.5807 150.054 57.5807 149.735V139.771H54.5229C54.2585 139.771 53.9955 139.749 53.7311 139.706C53.4818 139.648 53.2694 139.501 53.0927 139.27C52.931 139.037 52.8502 138.637 52.8502 138.071C52.8502 137.505 52.931 137.126 53.0927 136.894C53.2681 136.662 53.4886 136.523 53.753 136.481C54.0174 136.437 54.2805 136.415 54.5449 136.415H64.599C64.8771 136.415 65.1415 136.437 65.3908 136.481C65.6402 136.525 65.8456 136.663 66.0073 136.894C66.1827 137.127 66.2717 137.527 66.2717 138.093C66.2717 138.659 66.184 139.045 66.0073 139.292C65.8456 139.525 65.6333 139.663 65.3689 139.706C65.1196 139.749 64.8552 139.771 64.5771 139.771H61.5412V149.757C61.5412 150.076 61.5125 150.388 61.4536 150.694C61.3946 150.984 61.2261 151.224 60.948 151.413C60.6836 151.602 60.2151 151.697 59.5397 151.697L59.5384 151.698ZM78.2862 174.549C78.2862 175.053 78.0698 175.575 77.6396 176.114C77.2081 176.634 76.6231 177.083 75.8861 177.462C75.4367 177.697 74.9326 177.885 74.375 178.029C73.8174 178.19 73.2146 178.308 72.568 178.379C71.9392 178.47 71.2638 178.514 70.5446 178.514C69.25 178.514 68.0266 178.253 66.8759 177.733C65.7429 177.211 64.736 176.492 63.8551 175.575C62.9742 174.657 62.281 173.597 61.7782 172.391C61.2933 171.187 61.0494 169.901 61.0494 168.534C61.0494 167.166 61.3015 165.998 61.8043 164.866C62.3084 163.715 63.0002 162.709 63.8811 161.845C64.7798 160.965 65.8141 160.281 66.9827 159.795C68.1513 159.292 69.4007 159.04 70.7323 159.04C71.3077 159.04 71.9283 159.093 72.5941 159.201C73.2599 159.31 73.9065 159.48 74.5367 159.714C75.1846 159.929 75.7408 160.199 76.2094 160.522C76.5875 160.774 76.9286 161.043 77.2341 161.33C77.5574 161.618 77.7191 161.977 77.7191 162.41C77.7191 162.625 77.6656 162.859 77.5574 163.111C77.4492 163.363 77.2971 163.632 77.0985 163.92C76.7574 164.422 76.4149 164.792 76.0737 165.025C75.7326 165.24 75.408 165.348 75.1024 165.348C74.9052 165.348 74.6983 165.305 74.4819 165.214C74.2846 165.106 74.0051 164.944 73.6462 164.728C73.538 164.657 73.3311 164.566 73.0256 164.458C72.7201 164.332 72.3516 164.224 71.92 164.135C71.5063 164.026 71.0666 163.973 70.598 163.973C69.7528 163.973 68.9801 164.18 68.2787 164.594C67.5773 164.989 67.0197 165.537 66.606 166.239C66.1922 166.94 65.9854 167.723 65.9854 168.586C65.9854 169.449 66.2018 170.286 66.6334 171.041C67.0649 171.778 67.6307 172.38 68.3321 172.848C69.0513 173.297 69.8254 173.522 70.6515 173.522C70.9748 173.522 71.2899 173.512 71.5954 173.494C71.9187 173.476 72.2338 173.441 72.5393 173.386C72.8448 173.333 73.1146 173.26 73.3489 173.171V170.852H71.3529C71.0296 170.852 70.7241 170.826 70.4364 170.772C70.1487 170.701 69.9144 170.52 69.735 170.232C69.5555 169.945 69.4651 169.45 69.4651 168.749C69.4651 168.047 69.5637 167.553 69.7624 167.264C69.9596 166.976 70.2117 166.806 70.5172 166.753C70.8227 166.699 71.1282 166.67 71.4337 166.67H76.1546C76.8738 166.688 77.3779 166.824 77.6656 167.076C77.9533 167.31 78.1246 167.597 78.178 167.939C78.2492 168.28 78.2862 168.642 78.2862 169.019V174.548V174.549ZM78.4616 142.354C78.7986 142.354 79.0986 142.382 79.363 142.441C79.6274 142.485 79.8398 142.624 80 142.856C80.1617 143.089 80.2425 143.498 80.2425 144.078C80.2425 144.659 80.1617 145.032 80 145.28C79.8384 145.513 79.6192 145.651 79.3411 145.695C79.063 145.739 78.7548 145.761 78.4177 145.761H74.3942V147.703H80.485C80.822 147.703 81.1371 147.732 81.4303 147.79C81.7385 147.849 81.9879 148.016 82.1783 148.292C82.3838 148.569 82.4865 149.042 82.4865 149.712C82.4865 150.382 82.3838 150.832 82.1783 151.109C81.9879 151.386 81.7385 151.553 81.4303 151.61C81.122 151.669 80.8001 151.698 80.4631 151.698H72.3721C71.7132 151.698 71.2433 151.604 70.9652 151.413C70.6871 151.21 70.5186 150.954 70.4597 150.65C70.4008 150.33 70.372 150.009 70.372 149.69V138.401C70.372 137.645 70.5186 137.127 70.8117 136.851C71.12 136.559 71.6625 136.414 72.4393 136.414H80.4864C80.8234 136.414 81.1385 136.442 81.4316 136.501C81.7399 136.559 81.9892 136.727 82.1796 137.004C82.3851 137.281 82.4879 137.753 82.4879 138.423C82.4879 139.093 82.3851 139.544 82.1796 139.821C81.9892 140.097 81.7399 140.264 81.4316 140.323C81.1234 140.381 80.8015 140.411 80.4645 140.411H74.3955V142.355H78.463L78.4616 142.354ZM99.8042 172.391C99.3192 173.544 98.6356 174.559 97.7547 175.44C96.8916 176.303 95.8847 176.986 94.7339 177.49C93.601 177.975 92.3776 178.219 91.0652 178.219H86.4799C85.7073 178.219 85.1497 178.101 84.8072 177.868C84.4661 177.634 84.2497 177.329 84.1592 176.952C84.0688 176.574 84.025 176.17 84.025 175.738V161.792C84.025 161.395 84.0606 161.01 84.1332 160.632C84.2044 160.255 84.4113 159.947 84.7538 159.714C85.0949 159.462 85.6799 159.347 86.5073 159.364H91.1474C92.4242 159.364 93.6284 159.607 94.7613 160.092C95.8943 160.578 96.893 161.252 97.7561 162.115C98.6369 162.961 99.3206 163.948 99.8055 165.083C100.31 166.214 100.56 167.421 100.56 168.697C100.56 169.972 100.308 171.242 99.8055 172.393L99.8042 172.391ZM123.063 172.608C122.596 173.776 121.93 174.811 121.067 175.709C120.222 176.592 119.242 177.282 118.127 177.788C117.03 178.29 115.844 178.542 114.567 178.542C113.29 178.542 112.023 178.299 110.872 177.814C109.739 177.311 108.74 176.618 107.877 175.737C107.014 174.856 106.331 173.839 105.828 172.689C105.343 171.52 105.099 170.279 105.099 168.966C105.099 167.654 105.333 166.324 105.8 165.136C106.285 163.95 106.951 162.906 107.796 162.007C108.642 161.108 109.621 160.406 110.736 159.903C111.869 159.4 113.074 159.148 114.35 159.148C115.627 159.148 116.886 159.4 118.019 159.903C119.17 160.388 120.177 161.073 121.04 161.954C121.903 162.835 122.577 163.869 123.063 165.057C123.548 166.225 123.792 167.492 123.792 168.86C123.792 170.227 123.55 171.439 123.063 172.609V172.608ZM149.005 175.79C149.005 176.186 148.969 176.572 148.897 176.951C148.824 177.329 148.617 177.634 148.276 177.867C147.935 178.101 147.35 178.218 146.522 178.218C145.695 178.218 145.139 178.1 144.796 177.867C144.455 177.615 144.248 177.3 144.176 176.923C144.104 176.527 144.067 176.133 144.067 175.737V168.076L140.911 172.364C140.84 172.454 140.732 172.59 140.588 172.769C140.444 172.949 140.237 173.111 139.967 173.254C139.697 173.398 139.321 173.47 138.834 173.47C138.348 173.47 137.962 173.397 137.674 173.254C137.404 173.111 137.197 172.957 137.053 172.796C136.909 172.616 136.801 172.472 136.73 172.364L133.601 168.102V175.79C133.601 176.186 133.565 176.572 133.493 176.951C133.422 177.327 133.215 177.634 132.872 177.867C132.531 178.101 131.946 178.218 131.119 178.218C130.291 178.218 129.761 178.1 129.42 177.867C129.079 177.633 128.872 177.327 128.799 176.951C128.727 176.574 128.691 176.168 128.691 175.737V161.818C128.691 161.422 128.727 161.045 128.799 160.686C128.871 160.31 129.077 160.003 129.42 159.77C129.761 159.518 130.346 159.392 131.173 159.392C131.731 159.392 132.135 159.427 132.387 159.501C132.657 159.574 132.846 159.663 132.953 159.771C133.079 159.88 133.205 160.006 133.331 160.149L138.834 167.221L144.31 160.175C144.489 159.978 144.651 159.826 144.795 159.718C144.957 159.61 145.163 159.529 145.416 159.474C145.685 159.421 146.062 159.392 146.548 159.392C147.357 159.392 147.932 159.519 148.273 159.77C148.614 160.004 148.823 160.31 148.894 160.686C148.965 161.063 149.002 161.459 149.002 161.873V175.792L149.005 175.79ZM126.027 151.582C113.276 151.582 102.937 141.132 102.937 128.243C102.937 115.355 113.275 104.903 126.027 104.903C138.778 104.903 149.116 115.352 149.116 128.243C149.116 141.134 138.778 151.582 126.027 151.582ZM149.113 66.3758V97.3917C149.113 98.2671 148.416 98.9767 147.555 98.9767H141.67C140.403 98.9767 139.188 98.4643 138.292 97.5547L133.322 92.4995C132.563 91.7269 131.278 91.9433 130.813 92.927C129.345 96.0546 125.766 101.526 118.716 101.526C109.035 101.526 96.9341 91.4269 106.328 64.0496C106.631 63.166 107.613 62.7358 108.451 63.1263L116.668 66.9512C117.46 67.3211 117.804 68.276 117.426 69.0746C116.248 71.568 114.815 76.8505 115.042 81.9687C115.248 86.6211 122.513 89.8774 123.94 75.4326C123.992 74.8956 124.432 74.486 124.962 74.486H130.401C130.447 74.486 130.493 74.486 130.539 74.4928C131.015 74.5353 131.432 74.8339 131.684 75.2477L135.035 80.7686C136.016 81.7659 137.694 81.0604 137.694 79.6493V66.4731C137.694 65.6045 138.382 64.899 139.236 64.888L147.543 64.7922C148.409 64.7839 149.119 65.4963 149.119 66.3772H149.116L149.113 66.3758ZM149.12 47.5389C149.769 48.2294 149.736 49.313 149.045 49.961L141.859 56.6984C141.169 57.3464 140.081 57.3122 139.432 56.6231L126.879 43.2838L114.613 56.3984C114.108 56.9396 113.259 56.9683 112.716 56.4642L104.962 49.239C104.42 48.7335 104.391 47.8855 104.896 47.3444L117.757 33.5914L105.01 20.0452C104.361 19.3548 104.395 18.2711 105.085 17.6231L112.271 10.8857C112.961 10.2377 114.049 10.2719 114.697 10.961L126.846 23.8715L139.641 10.1884C140.147 9.64724 140.997 9.61847 141.539 10.1226L149.293 17.3478C149.835 17.8533 149.864 18.7013 149.358 19.2424L135.966 33.5626L149.117 47.5375L149.12 47.5389Z" fill="#1C4772"/>
</g>
<defs>
<clipPath id="clip0_353_47">
<rect width="158.829" height="188.25" fill="white"/>
</clipPath>
</defs>
</svg>
