<svg width="2609" height="3113" viewBox="0 0 2609 3113" fill="none" xmlns="http://www.w3.org/2000/svg">
<path d="M2597.65 2184.8C2597.65 1947.08 2407.03 1754.41 2171.96 1754.41C1936.9 1754.41 1746.28 1947.11 1746.28 2184.8C1746.28 2422.5 1936.9 2615.17 2171.96 2615.17C2407.03 2615.17 2597.65 2422.47 2597.65 2184.8ZM2021 2184.8C2021 2100.5 2088.59 2032.17 2171.96 2032.17C2255.34 2032.17 2322.93 2100.5 2322.93 2184.8C2322.93 2269.1 2255.34 2337.44 2171.96 2337.44C2088.59 2337.44 2021 2269.1 2021 2184.8Z" fill="#1C4772"/>
<path d="M2597.59 1043.95V1615.89C2597.59 1632.04 2584.74 1645.12 2568.88 1645.12H2460.37C2437.01 1645.12 2414.61 1635.67 2398.09 1618.9L2306.46 1525.68C2292.46 1511.43 2268.77 1515.42 2260.21 1533.56C2233.14 1591.24 2167.16 1692.14 2037.19 1692.14C1858.7 1692.14 1635.6 1505.9 1808.79 1001.05C1814.37 984.761 1832.48 976.828 1847.94 984.028L1999.43 1054.56C2014.03 1061.38 2020.37 1078.99 2013.4 1093.72C1991.7 1139.7 1965.26 1237.11 1969.45 1331.49C1973.24 1417.28 2107.18 1477.33 2133.5 1210.96C2134.46 1201.06 2142.56 1193.5 2152.34 1193.5H2252.61C2253.47 1193.5 2254.3 1193.5 2255.16 1193.63C2263.92 1194.41 2271.63 1199.92 2276.27 1207.55L2338.05 1309.36C2356.14 1327.75 2387.08 1314.74 2387.08 1288.72V1045.74C2387.08 1029.73 2399.76 1016.72 2415.49 1016.52L2568.65 1014.75C2584.61 1014.57 2597.7 1027.71 2597.7 1043.98H2597.65L2597.59 1043.95Z" fill="#1C4772"/>
<path d="M2423.04 7.8592C2432.36 -2.11939 2448.02 -2.67527 2458.02 6.64631L2600.98 139.881C2610.98 149.203 2611.51 164.84 2602.19 174.819L2355.28 438.898L2597.75 696.589C2609.72 709.296 2609.11 729.304 2596.36 741.253L2463.88 865.494C2451.13 877.443 2431.1 876.836 2419.13 864.104L2187.7 618.129L1961.57 859.988C1952.25 869.967 1936.59 870.522 1926.59 861.2L1783.63 727.966C1773.63 718.644 1773.1 703.007 1782.42 693.028L2019.55 439.401L1784.52 189.597C1772.55 176.89 1773.18 156.882 1785.91 144.932L1918.38 20.6912L1918.35 20.7166C1931.11 8.76747 1951.14 9.37398 1963.11 22.1063L2187.11 260.174L2423.01 7.8592H2423.04Z" fill="#1C4772"/>
<path d="M2265.9 3106.38C2251.3 3106.38 2240.87 3104.21 2234.58 3099.91C2228.29 3095.59 2224.47 3089.96 2223.14 3083.01C2221.8 3076.04 2221.14 3068.59 2221.14 3060.63V2803.96C2221.14 2796.66 2221.8 2789.71 2223.14 2783.07C2224.45 2776.1 2228.26 2770.46 2234.58 2766.17C2240.87 2761.52 2251.65 2759.17 2266.91 2759.17C2277.19 2759.17 2284.64 2759.83 2289.28 2761.19C2294.26 2762.51 2297.75 2764.17 2299.72 2766.17C2302.04 2768.17 2304.36 2770.49 2306.69 2773.14L2409.63 2905.47H2406.65L2509.1 2773.65C2512.41 2770.01 2515.39 2767.21 2518.04 2765.21C2521.02 2763.21 2524.83 2761.72 2529.48 2760.71C2534.45 2759.73 2541.4 2759.2 2550.39 2759.2C2565.29 2759.2 2575.9 2761.55 2582.19 2766.19C2588.48 2770.51 2592.32 2776.15 2593.63 2783.1C2594.95 2790.04 2595.63 2797.34 2595.63 2804.97V3061.64C2595.63 3068.94 2594.97 3076.06 2593.63 3083.04C2592.29 3090.01 2588.48 3095.64 2582.19 3099.94C2575.9 3104.26 2565.12 3106.4 2549.86 3106.4C2534.61 3106.4 2524.35 3104.23 2518.04 3099.94C2511.75 3095.29 2507.93 3089.48 2506.6 3082.53C2505.28 3075.23 2504.6 3067.96 2504.6 3060.65V2919.39L2446.41 2998.46C2445.1 3000.13 2443.1 3002.6 2440.45 3005.94C2437.8 3009.25 2433.98 3012.23 2429.01 3014.88C2424.03 3017.53 2417.09 3018.85 2408.12 3018.85C2399.15 3018.85 2392.03 3017.53 2386.73 3014.88C2381.75 3012.23 2377.94 3009.4 2375.28 3006.42C2372.63 3003.11 2370.64 3000.45 2369.32 2998.46L2311.64 2919.87V3061.64C2311.64 3068.94 2310.98 3076.06 2309.64 3083.04C2308.33 3090.01 2304.51 3095.64 2298.2 3099.94C2291.91 3104.26 2281.13 3106.4 2265.87 3106.4L2265.9 3106.38Z" fill="#1C4772"/>
<path d="M1960.68 3112.34C1936.49 3112.34 1913.78 3107.84 1892.57 3098.9C1871.68 3089.63 1853.27 3076.84 1837.35 3060.6C1821.44 3044.35 1808.84 3025.61 1799.57 3004.39C1790.63 2982.84 1786.13 2959.95 1786.13 2935.75C1786.13 2911.55 1790.45 2886.99 1799.06 2865.12C1808.01 2843.24 1820.28 2823.99 1835.86 2807.42C1851.45 2790.85 1869.51 2777.89 1890.07 2768.61C1910.95 2759.34 1933.15 2754.7 1956.69 2754.7C1980.23 2754.7 2003.44 2759.34 2024.33 2768.61C2045.55 2777.56 2064.11 2790.19 2080.02 2806.43C2095.94 2822.68 2108.36 2841.75 2117.33 2863.65C2126.27 2885.2 2130.77 2908.57 2130.77 2933.78C2130.77 2958.99 2126.3 2981.35 2117.33 3002.92C2108.72 3024.47 2096.44 3043.55 2080.53 3060.12C2064.95 3076.39 2046.89 3089.12 2026.33 3098.44C2006.1 3107.71 1984.22 3112.36 1960.68 3112.36V3112.34ZM1958.21 3021.32C1969.47 3021.32 1980.08 3019.14 1990.03 3014.85C1999.98 3010.2 2008.6 3004.06 2015.9 2996.43C2023.52 2988.47 2029.33 2979.2 2033.3 2968.57C2037.62 2957.63 2039.76 2946.03 2039.76 2933.76C2039.76 2921.48 2037.62 2910.03 2033.3 2899.42C2028.98 2888.81 2023.02 2879.54 2015.39 2871.58C2008.09 2863.3 1999.48 2857.01 1989.53 2852.66C1979.9 2848.01 1969.63 2845.69 1958.69 2845.69C1947.75 2845.69 1936.82 2848.01 1926.87 2852.66C1917.24 2857.01 1908.63 2863.3 1901 2871.58C1893.7 2879.54 1887.92 2888.81 1883.6 2899.42C1879.28 2910.06 1877.13 2921.48 1877.13 2933.76C1877.13 2946.03 1879.28 2956.95 1883.6 2967.56C1887.92 2978.19 1893.7 2987.62 1901 2995.93C1908.63 3003.88 1917.24 3010.17 1926.87 3014.82C1936.82 3019.14 1947.25 3021.29 1958.18 3021.29L1958.21 3021.32Z" fill="#1C4772"/>
<path d="M1442.86 3106.38C1428.62 3106.38 1418.34 3104.2 1412.02 3099.91C1405.73 3095.59 1401.74 3089.96 1400.1 3083.01C1398.43 3076.01 1397.62 3068.58 1397.62 3060.63V2803.45C1397.62 2796.13 1398.28 2789.03 1399.62 2782.06C1400.93 2775.08 1404.75 2769.43 1411.06 2765.13C1417.35 2760.48 1428.14 2758.36 1443.39 2758.69H1528.94C1552.48 2758.69 1574.68 2763.16 1595.56 2772.1C1616.45 2781.07 1634.86 2793.5 1650.78 2809.42C1667.02 2825 1679.62 2843.22 1688.56 2864.13C1697.86 2885.03 1702.48 2907.26 1702.48 2930.78C1702.48 2954.3 1697.83 2977.71 1688.56 2998.94C1679.62 3020.18 1667.02 3038.9 1650.78 3055.14C1634.86 3071.06 1616.3 3083.67 1595.08 3092.96C1574.2 3101.91 1551.64 3106.4 1527.45 3106.4H1442.91L1442.86 3106.38ZM1488.6 3015.33H1528.89C1543.81 3015.33 1557.55 3011.69 1570.16 3004.39C1582.76 2996.76 1592.71 2986.83 1599.98 2974.53C1607.61 2961.93 1611.43 2948.01 1611.43 2932.75C1611.43 2917.49 1607.61 2903.57 1599.98 2890.96C1592.69 2878.36 1582.73 2868.43 1570.16 2861.13C1557.55 2853.5 1543.64 2849.68 1528.38 2849.68H1488.6V3015.33Z" fill="#1C4772"/>
<path d="M1149.07 3111.83C1125.2 3111.83 1102.65 3107.03 1081.43 3097.43C1060.55 3087.81 1041.98 3074.55 1025.74 3057.64C1009.5 3040.72 996.722 3021.17 987.452 2998.93C978.511 2976.73 974.016 2953.01 974.016 2927.8C974.016 2902.58 978.663 2881.03 987.932 2860.17C997.227 2838.95 1009.98 2820.38 1026.22 2804.46C1042.79 2788.22 1061.86 2775.61 1083.4 2766.65C1104.95 2757.37 1127.98 2752.73 1152.53 2752.73C1163.14 2752.73 1174.58 2753.71 1186.86 2755.71C1199.13 2757.7 1211.05 2760.84 1222.67 2765.16C1234.59 2769.12 1244.87 2774.1 1253.51 2780.06C1260.48 2784.71 1266.77 2789.66 1272.4 2794.97C1278.36 2800.27 1281.34 2806.89 1281.34 2814.87C1281.34 2818.84 1280.36 2823.16 1278.36 2827.81C1276.37 2832.45 1273.56 2837.41 1269.9 2842.71C1263.61 2851.98 1257.3 2858.8 1251.01 2863.1C1244.72 2867.06 1238.73 2869.06 1233.1 2869.06C1229.47 2869.06 1225.65 2868.25 1221.66 2866.58C1218.02 2864.59 1212.87 2861.61 1206.25 2857.62C1204.26 2856.3 1200.45 2854.64 1194.81 2852.64C1189.18 2850.32 1182.39 2848.32 1174.43 2846.68C1166.8 2844.68 1158.7 2843.7 1150.06 2843.7C1134.47 2843.7 1120.23 2847.51 1107.3 2855.14C1094.37 2862.44 1084.09 2872.55 1076.46 2885.48C1068.83 2898.42 1065.02 2912.84 1065.02 2928.76C1065.02 2944.67 1069.01 2960.11 1076.96 2974.03C1084.92 2987.62 1095.35 2998.73 1108.28 3007.35C1121.54 3015.63 1135.81 3019.78 1151.04 3019.78C1157 3019.78 1162.81 3019.6 1168.44 3019.27C1174.41 3018.94 1180.21 3018.29 1185.85 3017.28C1191.48 3016.26 1196.45 3014.95 1200.77 3013.31V2970.54H1163.97C1158.01 2970.54 1152.38 2970.06 1147.08 2969.05C1141.77 2967.74 1137.45 2964.4 1134.15 2959.1C1130.84 2953.79 1129.17 2944.67 1129.17 2931.74C1129.17 2918.8 1130.99 2909.68 1134.65 2904.35C1138.29 2899.05 1142.93 2895.91 1148.57 2894.93C1154.2 2893.94 1159.83 2893.41 1165.46 2893.41H1252.5C1265.76 2893.74 1275.05 2896.24 1280.36 2900.89C1285.66 2905.21 1288.82 2910.49 1289.8 2916.81C1291.12 2923.1 1291.8 2929.77 1291.8 2936.71V3038.67C1291.8 3047.97 1287.81 3057.59 1279.88 3067.52C1271.92 3077.12 1261.14 3085.41 1247.55 3092.38C1239.27 3096.73 1229.97 3100.19 1219.69 3102.84C1209.41 3105.82 1198.3 3107.99 1186.38 3109.31C1174.78 3110.97 1162.33 3111.78 1149.07 3111.78V3111.83Z" fill="#1C4772"/>
<path d="M612.537 3106.86C597.938 3106.86 587.507 3104.71 581.218 3100.42C574.929 3095.77 571.115 3089.96 569.777 3083.01C568.463 3076.04 567.781 3068.76 567.781 3061.11V2802.95C567.781 2795.65 568.438 2788.7 569.777 2782.06C571.115 2775.44 574.904 2769.96 581.218 2765.64C587.835 2761.32 598.62 2759.17 613.547 2759.17C628.474 2759.17 638.072 2761.02 643.376 2764.65C648.68 2768.29 653.478 2772.94 657.797 2778.57L782.113 2945.71V2802.95C782.113 2795.65 782.769 2788.7 784.108 2782.06C785.775 2775.44 789.74 2769.96 796.029 2765.64C802.318 2761.32 812.926 2759.17 827.853 2759.17C842.78 2759.17 853.717 2761.52 859.677 2766.17C865.966 2770.49 869.78 2776.12 871.119 2783.07C872.457 2790.04 873.114 2797.32 873.114 2804.95V3061.61C873.114 3068.92 872.457 3076.04 871.119 3083.01C869.805 3089.98 865.991 3095.79 859.677 3100.42C853.388 3104.74 842.603 3106.86 827.348 3106.86C816.083 3106.86 807.446 3105.87 801.485 3103.88C795.853 3102.21 791.029 3098.75 787.063 3093.45L658.252 2923.33V3061.61C658.252 3068.92 657.595 3076.04 656.257 3083.01C654.918 3089.98 651.13 3095.79 644.815 3100.42C638.526 3104.74 627.741 3106.86 612.486 3106.86H612.537Z" fill="#1C4772"/>
<path d="M424.401 3106.86C409.474 3106.86 398.866 3104.71 392.577 3100.42C386.288 3095.74 382.475 3089.96 381.136 3083.01C379.823 3075.68 379.141 3068.41 379.141 3061.11V2803.93C379.141 2796.63 379.797 2789.51 381.136 2782.54C382.475 2775.56 386.263 2769.93 392.577 2765.64C398.866 2760.99 409.651 2758.66 424.906 2758.66C440.162 2758.66 450.77 2760.99 456.73 2765.64C463.019 2769.96 466.833 2775.59 468.172 2782.54C469.485 2789.51 470.167 2796.81 470.167 2804.44V3061.61C470.167 3068.91 469.51 3076.01 468.172 3083.01C466.858 3089.98 463.045 3095.77 456.73 3100.42C450.441 3104.73 439.657 3106.86 424.401 3106.86Z" fill="#1C4772"/>
<path d="M64.0302 3106.86C49.1033 3106.86 38.4953 3104.71 32.2063 3100.39C25.9173 3095.74 22.1035 3089.96 20.7648 3083.01C19.4515 3075.69 18.7695 3068.41 18.7695 3061.11V2803.94C18.7695 2796.64 19.4262 2789.51 20.7648 2782.54C22.1035 2775.57 25.892 2769.93 32.2063 2765.64C38.4953 2760.99 49.2801 2758.67 64.5353 2758.67C79.7906 2758.67 90.3986 2760.99 96.3592 2765.64C102.648 2769.96 106.462 2775.59 107.801 2782.54C109.114 2789.51 109.796 2796.81 109.796 2804.44V2873.08L196.327 2774.1C203.954 2765.79 211.077 2760.01 217.719 2756.7C224.362 2753.39 231.156 2752.73 238.102 2754.7C245.073 2756.7 252.7 2761.67 260.985 2769.61C274.573 2781.86 281.544 2792.65 281.872 2801.94C282.201 2811.21 276.745 2821.85 265.455 2833.77L167.988 2933.26L265.96 3031.25C278.235 3043.5 283.868 3054.62 282.857 3064.57C282.201 3074.17 275.078 3084.63 261.465 3095.9C251.513 3103.85 243.052 3108.83 236.107 3110.8C229.136 3112.8 222.67 3111.96 216.709 3108.33C210.749 3105.02 204.106 3099.03 196.807 3090.41L109.771 2991.44V3061.56C109.771 3068.87 109.114 3075.96 107.775 3082.96C106.437 3089.93 102.648 3095.72 96.334 3100.34C90.045 3104.69 79.2602 3106.81 64.0049 3106.81L64.0302 3106.86Z" fill="#1C4772"/>
<path d="M1478.64 2617.34C1466.92 2617.34 1458.45 2615.6 1453.28 2612.09C1448.1 2608.58 1444.82 2604.03 1443.45 2598.37C1442.09 2592.71 1441.41 2586.67 1441.41 2580.23V2371.79C1441.41 2365.88 1441.96 2360.09 1443.05 2354.46C1444.13 2348.83 1447.27 2344.25 1452.47 2340.74C1457.65 2336.98 1466.51 2335.24 1479.06 2335.51H1549.46C1568.83 2335.51 1587.11 2339.15 1604.29 2346.4C1621.46 2353.65 1636.62 2363.73 1649.7 2376.64C1663.06 2389.27 1673.44 2404.05 1680.79 2420.98C1688.42 2437.9 1692.26 2455.91 1692.26 2474.99C1692.26 2494.06 1688.45 2513.01 1680.79 2530.24C1673.42 2547.41 1663.06 2562.62 1649.7 2575.78C1636.62 2588.69 1621.34 2598.9 1603.86 2606.43C1586.68 2613.68 1568.12 2617.32 1548.22 2617.32H1478.66L1478.64 2617.34ZM1516.29 2543.55H1549.43C1561.71 2543.55 1573.02 2540.59 1583.4 2534.68C1593.76 2528.52 1601.97 2520.46 1607.95 2510.51C1614.22 2500.27 1617.37 2488.98 1617.37 2476.63C1617.37 2464.28 1614.24 2452.98 1607.95 2442.78C1601.94 2432.57 1593.76 2424.49 1583.4 2418.58C1573.05 2412.39 1561.58 2409.3 1549.03 2409.3H1516.29V2543.55Z" fill="#1C4772"/>
<path d="M1182.74 2617.35C1170.59 2617.35 1161.93 2615.6 1156.8 2612.09C1151.68 2608.35 1148.57 2603.63 1147.48 2598.02C1146.4 2592.11 1145.87 2586.2 1145.87 2580.31V2372.15C1145.87 2358.2 1148.57 2348.65 1153.97 2343.55C1159.66 2338.17 1169.66 2335.49 1183.98 2335.49H1332.34C1338.55 2335.49 1344.36 2336.02 1349.77 2337.11C1355.45 2338.17 1360.05 2341.28 1363.56 2346.38C1367.35 2351.48 1369.24 2360.2 1369.24 2372.55C1369.24 2384.91 1367.35 2393.22 1363.56 2398.32C1360.05 2403.42 1355.45 2406.51 1349.77 2407.59C1344.08 2408.65 1338.15 2409.21 1331.94 2409.21H1220.05V2445.03H1295.04C1301.25 2445.03 1306.78 2445.56 1311.65 2446.65C1316.53 2447.46 1320.44 2450.01 1323.4 2454.3C1326.38 2458.6 1327.87 2466.12 1327.87 2476.84C1327.87 2487.55 1326.38 2494.42 1323.4 2498.99C1320.42 2503.29 1316.38 2505.84 1311.25 2506.65C1306.12 2507.45 1300.44 2507.86 1294.23 2507.86H1220.05V2543.68H1332.34C1338.55 2543.68 1344.36 2544.21 1349.77 2545.27C1355.45 2546.36 1360.05 2549.44 1363.56 2554.54C1367.35 2559.65 1369.24 2568.36 1369.24 2580.72C1369.24 2593.07 1367.35 2601.38 1363.56 2606.48C1360.05 2611.59 1355.45 2614.67 1349.77 2615.73C1344.08 2616.82 1338.15 2617.35 1331.94 2617.35H1182.77H1182.74Z" fill="#1C4772"/>
<path d="M1039.44 2335.52C1044.57 2335.52 1049.44 2335.92 1054.04 2336.73C1058.63 2337.54 1062.42 2340.09 1065.4 2344.36C1068.64 2348.65 1070.28 2356.03 1070.28 2366.46C1070.28 2376.9 1068.66 2384.02 1065.4 2388.57C1062.42 2392.86 1058.51 2395.41 1053.63 2396.2C1049.04 2397.01 1044.16 2397.41 1039.03 2397.41H983.065V2581.55C983.065 2587.43 982.535 2593.19 981.449 2598.83C980.362 2604.18 977.256 2608.6 972.129 2612.09C967.254 2615.58 958.616 2617.32 946.164 2617.32C933.713 2617.32 925.757 2615.58 920.604 2612.09C915.477 2608.33 912.345 2603.78 911.284 2598.4C910.476 2592.77 910.072 2587.01 910.072 2581.12V2397.39H853.698C848.824 2397.39 843.974 2396.98 839.1 2396.17C834.503 2395.11 830.588 2392.41 827.33 2388.14C824.35 2383.84 822.859 2376.47 822.859 2366.03C822.859 2355.6 824.35 2348.6 827.33 2344.33C830.563 2340.04 834.629 2337.49 839.504 2336.7C844.378 2335.92 849.228 2335.49 854.102 2335.49H1039.46L1039.44 2335.52Z" fill="#1C4772"/>
<path d="M710.967 2617.34C699.146 2617.34 690.736 2615.6 685.735 2612.09C680.734 2608.35 677.728 2603.63 676.667 2598.02C675.607 2592.11 675.102 2586.2 675.102 2580.31V2372.15C675.102 2366.23 675.632 2360.48 676.667 2354.84C677.728 2349.21 680.734 2344.64 685.735 2341.15C690.736 2337.38 699.273 2335.52 711.371 2335.52C723.469 2335.52 731.879 2337.38 736.603 2341.15C741.603 2344.64 744.609 2349.21 745.67 2354.84C746.731 2360.48 747.236 2366.39 747.236 2372.55V2580.71C747.236 2586.6 746.705 2592.38 745.67 2598.02C744.609 2603.65 741.603 2608.35 736.603 2612.09C731.602 2615.6 723.065 2617.34 710.967 2617.34Z" fill="#1C4772"/>
<path d="M384.925 2617.34C373.105 2617.34 364.644 2615.6 359.542 2612.09C354.44 2608.33 351.359 2603.63 350.273 2597.99C349.212 2592.33 348.656 2586.42 348.656 2580.23V2370.98C348.656 2365.07 349.187 2359.41 350.273 2354.06C351.359 2348.68 354.44 2344.26 359.542 2340.74C364.922 2337.26 373.636 2335.52 385.734 2335.52C397.832 2335.52 405.611 2337.01 409.905 2339.96C414.198 2342.92 418.088 2346.68 421.599 2351.25L522.324 2486.74V2371.01C522.324 2365.1 522.854 2359.44 523.94 2354.08C525.279 2348.7 528.512 2344.28 533.614 2340.77C538.716 2337.28 547.303 2335.54 559.401 2335.54C571.499 2335.54 580.365 2337.41 585.189 2341.17C590.291 2344.66 593.372 2349.23 594.458 2354.89C595.544 2360.53 596.075 2366.46 596.075 2372.63V2580.69C596.075 2586.6 595.544 2592.38 594.458 2598.02C593.372 2603.68 590.291 2608.35 585.189 2612.11C580.087 2615.63 571.348 2617.37 558.997 2617.37C549.854 2617.37 542.883 2616.56 538.034 2614.92C533.462 2613.58 529.573 2610.78 526.34 2606.46L421.978 2468.57V2580.66C421.978 2586.57 421.447 2592.36 420.361 2597.99C419.275 2603.65 416.194 2608.33 411.092 2612.09C405.99 2615.6 397.251 2617.34 384.9 2617.34H384.925Z" fill="#1C4772"/>
<path d="M143.59 2624.22C123.056 2624.22 104.947 2620.18 89.2873 2612.07C73.8805 2603.68 60.9236 2592.74 50.3914 2579.22C39.8592 2565.71 31.8779 2550.83 26.4729 2534.64C21.3458 2518.42 18.7695 2502.33 18.7695 2486.38V2372.86C18.7695 2366.64 19.2999 2360.7 20.386 2355.02C21.472 2349.34 24.5787 2344.74 29.7058 2341.23C34.833 2337.44 43.6225 2335.54 56.049 2335.54C68.4754 2335.54 77.2649 2337.44 82.3921 2341.23C87.5193 2344.74 90.6259 2349.34 91.712 2355.02C92.798 2360.7 93.3284 2366.77 93.3284 2373.26V2486.38C93.3284 2495.3 94.8186 2504.62 97.7736 2514.38C100.754 2524.1 105.881 2532.49 113.18 2539.51C120.758 2546.26 131.29 2549.64 144.802 2549.64C155.057 2549.64 163.972 2547.07 171.55 2541.94C179.127 2536.51 184.911 2529.08 188.977 2519.61C193.296 2509.88 195.468 2498.66 195.468 2485.96V2370.78C195.468 2364.85 195.998 2359.29 197.084 2354.16C198.423 2348.76 201.681 2344.28 206.808 2340.77C211.936 2337.26 220.599 2335.49 232.747 2335.49C244.896 2335.49 253.812 2337.39 258.686 2341.18C263.814 2344.97 266.92 2349.69 268.006 2355.37C269.092 2361.06 269.623 2366.99 269.623 2373.21V2487.14C269.623 2503.36 266.92 2519.58 261.515 2535.8C256.11 2551.76 248.003 2566.47 237.193 2579.98C226.66 2593.22 213.552 2603.91 197.893 2612.02C182.233 2620.12 164.124 2624.17 143.59 2624.17V2624.22Z" fill="#1C4772"/>
<path d="M543.005 1770.32C740.768 1684.61 829.445 1627.11 855.915 1608.36C830.077 1578.98 758.574 1473.77 763.6 1213.84C764.762 1153.54 753.169 1091.9 733.898 1031.88H41.9298C28.4931 1031.88 17.582 1042.79 17.582 1056.25V1812.86C128.233 1828.81 361.987 1848.76 543.005 1770.32Z" fill="#1C4772"/>
<path d="M1265.01 1473.56C1276.62 1473.56 1286.02 1464.16 1286.02 1452.59C1286.02 1441.02 1276.6 1431.62 1265.01 1431.62C1253.41 1431.62 1243.99 1441.02 1243.99 1452.59C1243.99 1464.16 1253.41 1473.56 1265.01 1473.56Z" fill="#1C4772"/>
<path d="M454.86 575.404V570.301C455.062 567.219 456.577 564.339 459.027 562.419C462.664 559.438 467.564 559.009 471.631 561.257C497.898 575.606 579.301 623.125 674.47 707.376C699.222 664.455 710.613 617.593 710.613 573.459C710.613 443.458 609.736 377.448 552.074 350.366C533.94 341.802 529.949 318.106 544.194 304.111L655.098 195.052C660.604 189.697 663.685 182.371 663.685 174.741V41.6081C663.685 25.7432 650.602 12.8594 634.463 12.8594H62.6176C46.352 12.8594 33.2436 25.9453 33.3951 41.9112L35.1631 195.103C35.3652 210.841 48.3726 223.523 64.3856 223.523H307.232C333.247 223.523 346.254 254.47 327.867 272.558L220.626 337.659C215.12 343.015 212.038 350.341 212.038 357.97V458.97C212.038 469.858 221.611 476.325 232.648 477.462C495.347 504.518 435.437 637.424 349.992 641.213C255.758 645.407 158.418 619.007 112.399 597.307C97.6744 590.309 79.9692 596.574 73.175 611.227L2.65727 762.751C-4.51573 778.212 3.38973 796.325 19.6805 801.908C321.503 905.509 509.415 867.338 611.732 781.723C542.603 673.549 472.818 595.084 457.84 578.613L454.86 575.43V575.404Z" fill="#1C4772"/>
<path d="M1556.04 1031.9H1375.68C1390.03 1151.44 1387.5 1271.64 1351.66 1372.69C1321.78 1338.74 1288.49 1329.24 1233.2 1324.34C1204.92 1321.78 1177.39 1331.46 1151.25 1352.88C1138.97 1362.99 1128.19 1374.71 1119.12 1386.31C1117.93 1381.4 1116.54 1376.2 1115.05 1370.54C1110.15 1352.43 1103.64 1332.42 1095.83 1310.69C1115.58 1272.37 1141.82 1211.99 1168.52 1122.97C1176.86 1095.18 1184.89 1064.51 1192.36 1031.87H937.596C943.026 1041.62 948.356 1051.5 953.584 1061.58C1064.89 1275.93 1097.12 1381.23 1105.23 1431.17C1115.78 1414.88 1130.74 1395.6 1149.3 1380.37C1173.32 1360.66 1198.4 1351.82 1223.78 1354.07C1303.29 1361.09 1333.5 1376.96 1377.68 1467.25L1435.21 1504.94L1435.97 1510.9C1436.17 1514.51 1434.68 1517.92 1431.9 1520.27L1429.98 1521.86L1427.1 1522.6L1414.2 1525.25C1383.46 1531.54 1354.44 1545.91 1332.67 1568.47C1329.79 1571.56 1326.48 1574.54 1322.74 1577.62C1321.78 1578.48 1320.72 1579.21 1319.63 1580.07C1320.8 1604.57 1318.67 1696.02 1228.48 1770.04V1769.71C1189.54 1801.65 1138.95 1826.05 1078 1842.22C944.693 1877.66 856.243 1871.82 785.144 1867.02C720.89 1862.76 677.145 1864.04 625.798 1891.63C551.416 1931.57 323.875 2026.53 172.231 2084.03C167.862 2085.72 163.694 2080.42 162.305 2075.95C160.916 2071.47 162.305 2066.57 166.043 2063.59L167.104 2062.73L168.695 2062C193.346 2051.14 411.39 1954.66 479.584 1901.96C491.96 1892.39 502.417 1884.51 511.181 1877.89C521.637 1870.01 529.543 1864.04 535.302 1859.37C535.302 1859.37 536.893 1858.08 537.549 1857.55C535.63 1857.12 533.71 1856.69 532.119 1856.39C526.79 1855.23 505.978 1858.94 483.878 1862.98C392.927 1879.25 229.413 1882.31 17.582 1838.53V2119.95C17.582 2133.42 28.4931 2144.33 41.9298 2144.33H1556.04C1569.48 2144.33 1580.39 2133.44 1580.39 2119.98V1056.15C1580.39 1042.71 1569.48 1031.8 1556.04 1031.8V1031.9Z" fill="#1C4772"/>
<path d="M1635.78 438.633C1635.78 203.515 1442.11 12.8594 1203.18 12.8594C964.249 12.8594 770.578 203.515 770.578 438.633C770.578 673.751 964.275 864.407 1203.18 864.407C1209.52 864.407 1215.81 864.255 1222.1 863.978C1233.92 771.264 1238.59 674.509 1230.89 587.151C1221.9 588.768 1212.65 589.652 1203.18 589.652C1118.44 589.652 1049.74 522.05 1049.74 438.658C1049.74 355.267 1118.44 287.665 1203.18 287.665C1287.92 287.665 1356.62 355.267 1356.62 438.658C1356.62 503.078 1315.6 558.049 1257.91 579.749C1284 648.64 1315.45 741 1340.4 842.555C1512.05 786.093 1635.78 626.586 1635.78 438.658V438.633Z" fill="#1C4772"/>
</svg>
