<svg width="158" height="50" viewBox="0 0 158 50" fill="none" xmlns="http://www.w3.org/2000/svg">
<path d="M131.222 23.2052C131.222 21.8909 130.15 20.7956 128.798 20.7956C127.446 20.7956 126.409 21.8909 126.409 23.2052C126.409 23.8126 126.629 24.3503 126.98 24.7734C125.493 24.3652 123.449 23.8923 120.705 23.2699C120.57 23.2401 120.084 23.1305 119.313 22.9663C117.925 22.6775 115.056 22.11 111.41 21.5773C108.295 21.1242 106.422 20.9649 104.944 21.0197C104.744 21.0247 104.564 21.0446 104.379 21.0595C104.614 20.5119 104.744 19.9095 104.744 19.2673C104.744 15.7326 101.754 14.6722 98.9899 13.9503C97.6527 13.6018 96.8915 13.2832 96.591 12.8102C96.4958 12.6509 96.4458 12.4767 96.4458 12.2725C96.4458 11.5258 97.232 10.9931 98.2938 10.9931C99.3555 10.9931 100.517 11.4312 101.369 12.2377L104.003 9.83807L104.023 9.81816C102.511 8.34951 100.688 7.50317 98.2036 7.50317C94.8081 7.50317 92.4794 9.53438 92.4794 12.2875C92.4794 15.6031 95.0585 16.7283 97.7629 17.5099C99.1301 17.9081 100.127 18.2019 100.537 18.7296C100.673 18.9038 100.743 19.103 100.743 19.3419C100.743 20.1833 99.8012 20.7459 98.3288 20.7459C97.0117 20.7459 95.5694 20.1833 94.6278 19.0631L91.9335 21.5275L91.9135 21.5474C93.1304 22.9812 94.8832 23.8823 96.8965 24.181C96.4508 24.3204 95.98 24.4349 95.4992 24.5046C94.082 24.7087 92.6647 24.2955 89.8401 23.4741C88.8135 23.1754 88.1474 22.9364 87.5965 22.7223C88.0322 22.4385 88.4579 22.1199 88.8786 21.7465L86.4947 19.1279C85.0824 20.1883 83.9857 20.5617 82.358 20.5617C80.5952 20.5617 79.0026 19.6954 78.2364 18.1123C78.0811 17.7887 78.3365 17.4153 78.6971 17.4153H89.79C89.9453 16.9174 90.0705 16.0761 90.0705 15.389C90.0705 11.1524 87.1858 7.53304 82.2328 7.53304C77.2798 7.53304 73.644 11.1175 73.644 15.8869C73.644 17.933 74.3151 19.7552 75.4619 21.174C75.0763 21.2586 74.7007 21.3532 74.3251 21.4478C73.3986 21.6868 72.3469 21.9556 70.7493 22.1398C69.9731 22.2294 69.2369 22.2792 68.5608 22.2842C67.7995 22.2892 67.1635 22.2394 66.6026 22.1697V16.4146C66.6026 13.7959 67.9197 11.8942 72.1215 11.8942V7.56292C68.4205 7.56292 67.0734 9.02658 66.2571 10.774V7.87656H62.496V21.7565C61.9852 21.8063 61.4393 21.9108 60.8283 22.0851C60.4477 22.1896 60.0671 22.3191 59.6514 22.4684C56.5614 23.6184 53.5065 25.8488 53.6517 27.885C53.6717 28.0891 53.6968 28.3081 53.7919 28.5322C53.9622 28.9404 54.2777 29.2292 54.6734 29.5926C55.1642 30.0406 55.8302 30.658 56.5915 31.8279C57.6231 33.426 57.9336 34.6855 58.2091 35.8007C58.5346 37.11 58.815 38.2402 60.0771 39.5445C60.5779 40.0623 61.5044 40.6348 63.3574 41.7848C65.0251 42.8203 65.9215 43.2584 66.7128 43.6418C67.3939 43.9704 67.9798 44.2541 68.8963 44.8565C70.534 45.9269 71.3753 46.7832 72.0464 47.4702C72.8277 48.2668 73.3385 48.7895 74.5154 48.9936C74.7107 49.0285 74.886 49.0434 75.0562 49.0434C75.6272 49.0434 76.153 48.8443 77.355 48.3912C77.966 48.1622 78.7622 47.8585 79.834 47.4802C81.3714 46.9375 82.0175 46.7533 82.9139 46.4944C83.9105 46.2057 85.1475 45.8522 88.1874 44.8366L88.553 44.7122C89.8351 44.284 90.8517 43.9405 91.638 43.6717C92.7899 43.2684 93.3908 43.0344 93.7064 42.8602C95.0836 42.0885 95.8849 41.3766 96.5459 40.7145C96.7262 40.5352 96.8965 40.361 97.0618 40.1917C97.3723 39.8681 97.6677 39.5644 98.0133 39.2707C98.6543 38.7081 99.3304 38.28 100.187 37.8867L100.237 37.8668C100.592 37.7075 100.958 37.5631 101.339 37.4336L103.362 43.9106H107.514L110.148 36.0596C110.358 36.0098 110.579 35.9501 110.814 35.8605C110.904 35.8256 110.999 35.7858 111.099 35.746L111.19 35.7061C111.41 35.6115 111.6 35.512 111.776 35.4124L114.65 43.9106H118.772L123.019 30.3244C124.356 29.8963 125.643 29.4631 126.755 29.025V43.9106H130.876V27.8053H129.284C129.925 27.3871 130.3 26.9739 130.295 26.5657C130.295 26.1973 129.985 25.8836 129.309 25.565C130.411 25.336 131.222 24.3801 131.222 23.2102V23.2052ZM78.2113 13.7063C78.9275 12.0535 80.4349 11.0528 82.2378 11.0528C84.3162 11.0528 85.5382 12.2476 85.9438 13.776C86.029 14.0847 85.7786 14.3884 85.453 14.3884H78.6771C78.3215 14.3884 78.0711 14.0299 78.2113 13.7063ZM113.143 27.8053H109.021L107.579 31.9175C106.051 32.2312 104.965 32.276 104.944 32.276H104.744C104.524 32.2909 104.263 32.3009 103.973 32.3158L102.576 27.8053H99.8713C100.332 27.6161 100.688 27.407 101.133 27.1432C101.734 26.7897 102.556 26.3018 104.108 25.5899C105.215 25.0821 105.911 24.8033 106.647 24.6788C107.739 24.4897 108.736 24.8431 110.874 25.6496C113.007 26.4562 115.026 27.2179 115.011 28.0692C115.011 28.3529 114.77 28.5919 114.54 28.7911C114.275 29.0201 113.994 29.2292 113.714 29.4283L113.148 27.8053H113.143ZM100.042 33.2866C99.8012 33.3961 99.5007 33.5505 99.1551 33.7446C97.9282 34.4416 97.2921 34.9992 96.6761 35.5369C95.96 36.1641 95.2789 36.7566 93.6963 37.5183C92.4744 38.1057 91.2073 38.5538 89.9403 38.8426C88.0823 39.2707 86.7151 39.3454 85.2627 39.425C84.191 39.4848 83.0792 39.5445 81.687 39.7486C79.3983 40.0872 77.9559 40.59 76.9042 40.9534C75.5671 41.4214 74.7558 41.7002 73.3785 41.2969C71.0047 40.595 69.6425 38.6832 69.1667 37.8917C68.5357 36.8462 67.1735 34.2275 68.1551 32.51C68.7811 31.4147 70.0882 31.2653 72.0614 31.0463C74.0997 30.8173 76.6338 30.5335 79.6386 29.0698C79.7789 29.0001 79.9141 28.9304 80.0493 28.8657C80.46 28.6566 80.8806 28.4426 81.5267 28.2086C83.8004 27.3971 85.9188 27.2179 87.3461 27.2179C87.7167 27.2179 88.0422 27.2278 88.3076 27.2477C89.4795 27.3174 90.1456 27.4917 90.8568 27.6709C91.648 27.875 92.5445 28.104 94.2923 28.2285C96.1753 28.3629 97.3172 28.4376 98.454 28.2235L100.037 33.2916L100.042 33.2866ZM104.754 32.6792H104.955C104.955 32.6792 105.981 32.6294 107.423 32.3506L106.732 34.3122C106.166 34.357 105.535 34.4366 104.804 34.576C104.764 34.586 104.719 34.586 104.674 34.5959L104.088 32.7091C104.333 32.6942 104.559 32.6842 104.749 32.6792H104.754ZM104.879 34.9693C105.52 34.8498 106.086 34.7702 106.587 34.7254L106.402 35.2531C106.146 35.9849 105.1 35.965 104.869 35.2232L104.794 34.9793C104.824 34.9793 104.849 34.9743 104.879 34.9693ZM111.064 33.3065L111.285 33.9537C111.119 34.0035 110.959 34.0533 110.804 34.0881L111.064 33.3115V33.3065ZM114.645 32.1216C114.891 31.9623 115.191 31.7881 115.577 31.5939C116.633 31.0612 117.309 30.7476 117.855 30.4937C118.246 30.3095 118.556 30.1651 118.877 30.0008L118.446 31.3998C118.111 31.4844 117.82 31.5342 117.545 31.579C117.284 31.6238 117.029 31.6636 116.749 31.7333C116.253 31.8628 115.802 32.032 115.276 32.2909C115.106 32.3755 114.951 32.4602 114.795 32.5448L114.65 32.1216H114.645ZM121.616 27.8053H119.558L119.042 29.4631C118.592 29.7071 118.206 29.8913 117.685 30.1352C117.139 30.3891 116.458 30.7078 115.396 31.2404C115.041 31.4197 114.75 31.584 114.51 31.7333L113.844 29.8166C114.169 29.5926 114.49 29.3536 114.795 29.0898C114.991 28.9205 115.396 28.577 115.406 28.0742C115.426 26.944 113.478 26.2072 111.014 25.2763C108.956 24.4996 107.824 24.0715 106.577 24.2855C105.801 24.42 105.08 24.7087 103.938 25.2265C102.365 25.9434 101.534 26.4362 100.923 26.7997C100.332 27.1482 99.9414 27.3821 99.2453 27.6112C98.9949 27.6958 98.7495 27.7555 98.5041 27.8053H98.3238L98.3338 27.8402C97.2571 28.0343 96.1403 27.9596 94.3023 27.8302C92.6096 27.7107 91.7682 27.4967 90.9569 27.2876C90.2307 27.0984 89.5446 26.9241 88.3327 26.8495C86.9955 26.7698 84.3212 26.7897 81.3915 27.8302C80.7204 28.0692 80.2847 28.2932 79.864 28.5073C79.7288 28.577 79.5986 28.6417 79.4584 28.7114C76.5136 30.1452 74.0196 30.424 72.0113 30.648C69.9881 30.877 68.5257 31.0413 67.7995 32.3108C66.7178 34.2126 68.1501 36.9906 68.8162 38.0958C69.317 38.9272 70.7493 40.9385 73.2584 41.6753C73.7642 41.8246 74.2049 41.8894 74.6155 41.8894C75.4218 41.8894 76.128 41.6454 77.0344 41.3268C78.1312 40.9435 79.4934 40.4705 81.742 40.1369C83.1143 39.9328 84.216 39.8731 85.2828 39.8183C86.7501 39.7387 88.1324 39.664 90.0254 39.2259C91.3225 38.9272 92.6146 38.4692 93.8666 37.8718C95.4992 37.0901 96.1954 36.4778 96.9366 35.8306C97.5375 35.3078 98.1585 34.7652 99.3505 34.0881C99.656 33.9139 99.9314 33.7745 100.157 33.6699L100.673 35.3128C100.117 35.5618 99.5307 35.9152 98.9298 36.438C96.1603 38.8475 95.1787 39.196 93.3959 39.8233C92.6697 40.0822 91.8433 40.3709 90.7215 40.8588C89.0839 41.5658 88.3677 41.7151 87.6115 41.8695C86.8252 42.0337 86.0139 42.198 84.1459 42.9896C83.2094 43.3829 82.3931 43.7762 81.6769 44.1197C79.5285 45.1453 78.1112 45.8223 76.0529 45.5684C74.8659 45.4191 74.0096 45.0258 73.5488 44.8117C72.0915 44.1396 71.3352 43.3331 70.4588 42.3972C69.6475 41.5309 68.726 40.5502 67.0734 39.5395C66.4924 39.1861 66.1519 39.0268 65.8764 38.8973C65.5509 38.748 65.3406 38.6484 64.9299 38.3148C64.5343 37.9912 62.536 36.2289 62.1604 33.4608C61.7348 30.3493 63.5126 27.6659 65.1603 26.3118C66.3272 25.3559 68.9664 24.9228 74.3501 24.1113C76.3083 23.8176 77.6254 23.6632 78.7622 23.6085C79.0727 23.5935 79.3782 23.5836 79.6737 23.5836C80.0393 23.5836 80.3999 23.5935 80.7655 23.6135C81.8923 23.6732 82.7837 23.8176 84.196 24.0914C84.5766 24.1661 84.9873 24.2457 85.458 24.3453C86.655 24.5892 87.7618 24.8332 88.7984 25.0622C92.4994 25.8836 95.1687 26.4761 97.3923 25.9384C98.9298 25.565 99.7812 25.0522 100.607 24.5594C101.068 24.2855 101.544 24.0018 102.135 23.7429C103.071 23.3347 103.858 23.1604 104.564 23.026C106.101 22.7422 107.043 22.9911 109.116 23.5388C109.902 23.7479 110.884 24.0068 112.121 24.2905L112.857 24.4598C114.169 24.7585 116.148 25.2115 118.897 25.9284C120.735 26.4064 121.857 26.73 121.917 27.2129C121.942 27.3921 121.827 27.5863 121.616 27.7954V27.8053ZM111.029 35.3327L110.939 35.3726C110.849 35.4124 110.759 35.4522 110.674 35.4821C110.544 35.5319 110.423 35.5667 110.298 35.6016L110.659 34.5212C110.904 34.4764 111.15 34.4167 111.41 34.3321L111.645 35.0241C111.465 35.1286 111.26 35.2332 111.029 35.3327ZM115.732 35.2431L114.926 32.9281C115.091 32.8336 115.266 32.739 115.451 32.6494C115.947 32.4054 116.378 32.2411 116.844 32.1216C117.114 32.0569 117.355 32.0171 117.61 31.9723C117.83 31.9374 118.061 31.8926 118.311 31.8379L117.264 35.2133C117.034 35.955 115.987 35.975 115.732 35.2381V35.2431ZM129.895 26.5707C129.9 26.9391 129.349 27.3672 128.508 27.8053H126.755V28.5919C125.588 29.0549 124.281 29.498 123.164 29.8614L123.805 27.8103H122.132C122.277 27.6012 122.343 27.3921 122.318 27.1731C122.222 26.4263 121.111 26.1077 119.002 25.5551C116.248 24.8382 114.265 24.3851 112.947 24.0864L112.211 23.9171C110.984 23.6334 110.008 23.3745 109.221 23.1654C107.088 22.6028 106.116 22.344 104.494 22.6476C103.938 22.7522 103.337 22.8816 102.656 23.1256C102.621 23.1405 102.581 23.1554 102.546 23.1704C102.36 23.2401 102.175 23.3048 101.98 23.3894C101.599 23.5537 101.274 23.728 100.968 23.9022C100.933 23.9221 100.898 23.942 100.868 23.9619C100.713 24.0516 100.557 24.1412 100.407 24.2308C99.5708 24.7286 98.7795 25.2016 97.3022 25.56C95.1737 26.0778 92.5395 25.4953 88.8936 24.6838C87.8569 24.4548 86.7451 24.2059 85.5482 23.9619C85.403 23.9321 85.2727 23.9072 85.1375 23.8773C83.3096 23.5089 82.2078 23.2998 80.7955 23.2202C79.884 23.1704 79.0427 23.1754 78.011 23.26C77.0244 23.3396 75.8626 23.489 74.295 23.723C68.8362 24.5444 66.1619 24.9875 64.9099 26.0081C63.1771 27.427 61.3191 30.2448 61.7648 33.5156C62.1554 36.3583 64.0936 38.1406 64.6795 38.6185C65.1302 38.9869 65.3706 39.1014 65.7112 39.2558C65.9766 39.3802 66.3071 39.5346 66.868 39.8781C68.4706 40.8588 69.3721 41.8197 70.1684 42.666C71.0348 43.592 71.8561 44.4632 73.3836 45.1702C73.8643 45.3942 74.7558 45.8074 76.0078 45.9617C76.3133 46.0016 76.6088 46.0165 76.8942 46.0165C78.627 46.0165 80.0243 45.3494 81.8522 44.4782C82.5684 44.1346 83.3797 43.7463 84.3062 43.358C86.1341 42.5863 86.9304 42.4221 87.6967 42.2628C88.4729 42.1034 89.2091 41.9491 90.8868 41.2272C91.9986 40.7493 92.8149 40.4605 93.5361 40.2066C95.369 39.5594 96.3757 39.206 99.2002 36.7466C99.7561 36.2637 100.287 35.9351 100.798 35.7011L101.218 37.0553C100.833 37.1847 100.462 37.3291 100.102 37.4884L100.052 37.5083C99.1351 37.9215 98.424 38.3746 97.7429 38.972C97.3873 39.2807 97.0868 39.5893 96.7713 39.9179C96.606 40.0872 96.4408 40.2614 96.2555 40.4406C95.6194 41.0729 94.8432 41.7649 93.506 42.5117C93.2156 42.671 92.6196 42.905 91.5028 43.2933C90.7215 43.5621 89.7049 43.9056 88.4228 44.3338L88.0572 44.4582C85.0273 45.4689 83.7954 45.8223 82.8038 46.1111C81.9374 46.36 81.2512 46.5592 79.7037 47.1068C78.627 47.4851 77.8307 47.7888 77.2147 48.0178C75.6973 48.5904 75.3317 48.7298 74.5855 48.6003C73.5388 48.4211 73.0881 47.9581 72.3369 47.1914C71.6858 46.5293 70.7944 45.6182 69.1167 44.523C68.1802 43.9106 67.5842 43.6219 66.8931 43.2833C66.1118 42.905 65.2204 42.4718 63.5727 41.4463C61.8049 40.351 60.8333 39.7486 60.3675 39.2657C59.1806 38.041 58.9152 36.9557 58.5997 35.7061C58.3142 34.5611 57.9937 33.2667 56.927 31.6138C56.1407 30.3991 55.4496 29.7668 54.9438 29.2989C54.5682 28.9553 54.2978 28.7064 54.1575 28.3729C54.0824 28.2036 54.0624 28.0293 54.0473 27.8551C53.9171 26.038 56.907 23.9122 59.7866 22.8418C60.1873 22.6924 60.5629 22.568 60.9335 22.4684C61.5044 22.3041 62.0152 22.2095 62.496 22.1597C62.536 22.1597 62.5761 22.1448 62.6162 22.1448C62.8315 22.1249 63.0369 22.1149 63.2372 22.1149C63.9383 22.1149 64.5443 22.2245 65.2254 22.3539C65.6461 22.4286 66.0918 22.5132 66.6026 22.5779C67.1635 22.6476 67.8045 22.6974 68.5608 22.6924C69.2519 22.6875 70.0031 22.6377 70.7944 22.5481C72.422 22.3589 73.4887 22.0851 74.4252 21.8461C74.886 21.7266 75.3117 21.6221 75.7624 21.5275C76.128 21.4528 76.5036 21.3931 76.9343 21.3483C77.5302 21.2835 78.1663 21.2586 78.8674 21.2786C79.6186 21.2985 80.3248 21.3433 80.9708 21.4229C82.8488 21.6271 84.2711 21.9955 84.6618 22.105C85.6233 22.3589 86.1542 22.568 86.8303 22.8518C86.9404 22.8966 87.0606 22.9463 87.1808 22.9961C87.7718 23.2351 88.4979 23.5089 89.7299 23.8674C92.6046 24.7087 94.0469 25.1269 95.5593 24.9128C96.3706 24.7934 97.1519 24.5494 97.838 24.2855C97.8631 24.2756 97.8831 24.2706 97.9081 24.2607C98.7495 23.9321 99.4356 23.5786 99.7912 23.3894C100.522 23.0061 101.038 22.6676 101.344 22.4634L101.524 22.3439C101.764 22.1896 101.975 22.0801 102.185 21.9905C102.751 21.7316 103.387 21.5673 104.153 21.4877C104.163 21.4877 104.173 21.4877 104.183 21.4877C104.429 21.4628 104.689 21.4428 104.965 21.4379C106.412 21.3831 108.27 21.5424 111.355 21.9905C114.991 22.5232 117.855 23.0857 119.238 23.3745C120.009 23.5388 120.49 23.6433 120.625 23.6732C126.003 24.8929 129.89 25.7741 129.9 26.5856L129.895 26.5707Z" fill="#2B2B2B"/>
<path d="M138.428 21.2039H134.307V43.9056H138.428V21.2039Z" fill="#2B2B2B"/>
<path d="M153.883 21.2039V27.7306C153.883 28.4276 153.107 28.8557 152.521 28.4774C151.585 27.865 150.398 27.4618 148.755 27.4618C144.383 27.4618 140.767 31.0562 140.767 35.8754C140.767 40.6945 144.383 44.2541 148.755 44.2541C151.094 44.2541 152.506 43.5024 153.598 42.4619C153.858 42.2129 154.289 42.3922 154.289 42.7556V43.9106H158V21.2088H153.878L153.883 21.2039ZM149.381 40.2813C146.802 40.2813 144.914 38.3098 144.914 35.8704C144.914 33.4309 146.802 31.4296 149.381 31.4296C151.96 31.4296 153.848 33.4309 153.848 35.8704C153.848 38.3098 151.96 40.2813 149.381 40.2813Z" fill="#2B2B2B"/>
<path d="M59.3959 16.9522V7.85156H55.2742V7.87148H55.2642V16.4095C55.2642 19.2124 54.0122 20.3973 52.069 20.3973C50.1259 20.3973 48.8388 19.2124 48.8388 16.4095V7.87645H48.8288V7.85654H44.7072V16.9572C44.7072 22.2393 48.6335 24.3054 52.064 24.3054C55.4946 24.3054 59.3959 22.2393 59.3959 16.9572V16.9522Z" fill="#2B2B2B"/>
<path d="M6.61568 6.37808C6.61568 5.16334 7.30679 4.54103 8.49871 4.54103L10.8325 4.50618V0.956543H7.6824C4.48223 0.956543 2.479 2.70398 2.479 6.09929V6.56726C2.479 7.40862 2.03829 7.8766 1.19192 7.8766H0V11.6801H2.479V23.9271H6.61568V11.6801H10.8475V7.8766H6.61568V6.38306V6.37808Z" fill="#2B2B2B"/>
<path d="M24.1692 16.4145C24.1692 19.2174 22.9172 20.4023 20.974 20.4023C19.0309 20.4023 17.7438 19.2174 17.7438 16.4145V7.87646H13.6372V16.9472C13.6372 22.2144 17.5585 24.2705 20.974 24.2705C24.3896 24.2705 28.2808 22.2144 28.2808 16.9472V7.87646H24.1742V16.4145H24.1692Z" fill="#2B2B2B"/>
<path d="M37.6155 18.1272V13.1189C37.6155 12.3223 38.2666 11.6751 39.0679 11.6751H41.8474V7.87157H37.6155V3.38599H33.9496L33.6692 6.37804C33.574 7.40858 33.1383 7.87157 32.1016 7.87157H30.8496V11.6751H33.4839V18.4707C33.4839 22.3688 35.8377 24.2358 39.0328 24.2358C40.3199 24.2358 41.1663 24.1113 42.1679 23.8922V20.029C41.3215 20.2181 40.7907 20.2779 39.784 20.2779C38.532 20.2779 37.6205 19.7153 37.6205 18.1272H37.6155Z" fill="#2B2B2B"/>
<path d="M88.6781 31.5092H88.6681C88.1873 29.8912 85.5581 29.488 85.4479 29.473C84.1408 29.2739 83.3695 29.6423 82.0875 30.2497C81.3413 30.6031 80.4148 31.0412 79.0876 31.5142C77.6303 32.0369 76.6337 32.261 75.8324 32.4402C74.6805 32.6991 73.9794 32.8584 73.0929 33.6748C71.7558 34.9045 70.4036 37.3241 71.3301 38.6832C71.8109 39.3901 72.7975 39.6092 73.749 39.6092C74.4201 39.6092 75.0761 39.4996 75.5269 39.3851C76.849 39.0366 77.445 38.3994 78.076 37.7273C78.677 37.0851 79.298 36.423 80.6451 35.8952C82.8036 35.0539 85.3477 34.7651 85.3778 34.7602L85.5831 34.7402C86.3443 34.6606 87.2107 34.566 87.8918 33.9088C88.4327 33.3861 88.8934 32.48 88.7031 31.6337L88.6731 31.5092H88.6781ZM87.6164 33.6201C87.0304 34.1827 86.2742 34.2623 85.543 34.342L85.3377 34.3619C85.3127 34.3619 82.7135 34.6606 80.5049 35.5219C79.0726 36.0794 78.3915 36.8113 77.7855 37.4535C77.1695 38.1107 76.6387 38.6782 75.4267 38.9968C74.2698 39.3005 72.3117 39.41 71.6656 38.4591C70.9395 37.3987 71.9812 35.2431 73.3684 33.9636C74.1797 33.2168 74.8007 33.0774 75.9275 32.8235C76.7388 32.6393 77.7455 32.4153 79.2278 31.8826C80.575 31.4047 81.5115 30.9566 82.2627 30.6031C83.2844 30.1202 83.9304 29.8116 84.7768 29.8116C84.9671 29.8116 85.1724 29.8265 85.3928 29.8614C85.4178 29.8614 87.992 30.2546 88.3125 31.7133L88.3325 31.793C88.4477 32.4701 88.0621 33.1919 87.6164 33.6201Z" fill="#2B2B2B"/>
</svg>
