<svg width="100" height="100" viewBox="0 0 100 100" xmlns="http://www.w3.org/2000/svg">
    <!-- Vertical Lines (Doubled Density) -->
    <polygon points="5,0 6,0 6,100 5,100" fill="#E34DE6"/>
    <polygon points="15,0 16,0 16,100 15,100" fill="#E34DE6"/>
    <polygon points="25,0 26,0 26,100 25,100" fill="#E34DE6"/>
    <polygon points="35,0 36,0 36,100 35,100" fill="#E34DE6"/>
    <polygon points="45,0 46,0 46,100 45,100" fill="#E34DE6"/>
    <polygon points="55,0 56,0 56,100 55,100" fill="#E34DE6"/>
    <polygon points="65,0 66,0 66,100 65,100" fill="#E34DE6"/>
    <polygon points="75,0 76,0 76,100 75,100" fill="#E34DE6"/>
    <polygon points="85,0 86,0 86,100 85,100" fill="#E34DE6"/>
    <polygon points="95,0 96,0 96,100 95,100" fill="#E34DE6"/>

    <!-- Horizontal Lines (Doubled Density) -->
    <polygon points="0,5 100,5 100,6 0,6" fill="#E34DE6"/>
    <polygon points="0,15 100,15 100,16 0,16" fill="#E34DE6"/>
    <polygon points="0,25 100,25 100,26 0,26" fill="#E34DE6"/>
    <polygon points="0,35 100,35 100,36 0,36" fill="#E34DE6"/>
    <polygon points="0,45 100,45 100,46 0,46" fill="#E34DE6"/>
    <polygon points="0,55 100,55 100,56 0,56" fill="#E34DE6"/>
    <polygon points="0,65 100,65 100,66 0,66" fill="#E34DE6"/>
    <polygon points="0,75 100,75 100,76 0,76" fill="#E34DE6"/>
    <polygon points="0,85 100,85 100,86 0,86" fill="#E34DE6"/>
    <polygon points="0,95 100,95 100,96 0,96" fill="#E34DE6"/>
</svg>