<svg width="63" height="85" viewBox="0 0 63 85" fill="none" xmlns="http://www.w3.org/2000/svg">
<g clip-path="url(#clip0_357_1105)">
<path d="M62.1 34.05C62.1 56.05 36.05 79.78 36.05 79.78C36.05 79.78 10 58.07 10 34.05C10 19.66 21.66 8 36.05 8C50.44 8 62.1 19.66 62.1 34.05Z" fill="#1C4772"/>
<path d="M36.0509 54.7698C47.1463 54.7698 56.1409 45.7752 56.1409 34.6798C56.1409 23.5844 47.1463 14.5898 36.0509 14.5898C24.9555 14.5898 15.9609 23.5844 15.9609 34.6798C15.9609 45.7752 24.9555 54.7698 36.0509 54.7698Z" fill="#D6FDC5"/>
</g>
<g clip-path="url(#clip1_357_1105)">
<mask id="mask0_357_1105" style="mask-type:luminance" maskUnits="userSpaceOnUse" x="0" y="0" width="50" height="55">
<path d="M50 0H0V55H50V0Z" fill="white"/>
</mask>
<g mask="url(#mask0_357_1105)">
<path d="M49.9947 35.3924L49.9692 35.1886L48.0324 33.9001C46.5454 30.8137 45.5286 30.2713 42.8522 30.0312C41.9969 29.9544 41.1527 30.2566 40.345 30.9302C39.7201 31.451 39.2168 32.1099 38.8614 32.6669C38.5885 30.9596 37.5036 27.3602 33.7568 20.0327C28.2603 9.28275 19.2788 3.89571 17.5334 2.92763C17.3965 2.85077 17.2315 2.86545 17.1091 2.96735C17.0267 3.03299 16.9765 3.13144 16.9688 3.23679V3.41124L17.0692 3.52091C18.1396 4.71871 27.5487 15.4859 27.3616 25.2366C27.1924 34.122 29.6002 37.718 30.4691 38.7232C29.5781 39.364 26.5931 41.3295 19.936 44.2597C12.4926 47.5361 2.39734 45.7925 0.446988 45.41L0.263345 45.3849L0.137516 45.4903C0.0371934 45.574 -0.0172192 45.7088 0.00488592 45.8435L0.0516467 46.062L0.231038 46.138C8.34276 48.1069 14.601 48.0379 17.9457 47.4299C18.6896 47.2917 19.3902 47.1639 19.5696 47.2045C19.6232 47.2157 19.6886 47.2295 19.7524 47.2442C19.7311 47.2624 19.6767 47.3064 19.6767 47.3064C19.4829 47.4662 19.2168 47.67 18.8648 47.9394C18.5706 48.1648 18.2178 48.4342 17.8012 48.7624C15.5057 50.5638 8.16591 53.8619 7.33612 54.2332L7.28256 54.2583L7.24685 54.2876C7.12102 54.3895 7.07426 54.5571 7.12102 54.7099C7.16778 54.8628 7.30807 55.045 7.45515 54.9863C12.5597 53.0207 20.2191 49.7737 22.723 48.4092C24.4506 47.4662 25.924 47.423 28.0868 47.5681C30.4793 47.7321 33.4575 47.9316 37.9449 46.72C39.9964 46.1665 41.6993 45.3331 43.0103 44.2415V44.2528C46.0464 41.7233 46.1178 38.5963 46.0787 37.7595C46.1144 37.7301 46.151 37.7051 46.1833 37.6757C46.3091 37.5703 46.4205 37.4684 46.5174 37.3631C47.2503 36.591 48.2271 36.0997 49.2618 35.8855L49.6963 35.7948L49.7932 35.7698L49.8578 35.7154C49.9513 35.635 50.0015 35.5185 49.9947 35.395V35.3924ZM44.2397 34.1143C43.8486 34.1143 43.5324 33.793 43.5324 33.3975C43.5324 33.002 43.8495 32.6807 44.2397 32.6807C44.63 32.6807 44.9471 33.002 44.9471 33.3975C44.9471 33.793 44.63 34.1143 44.2397 34.1143Z" fill="#1C4772"/>
</g>
<path d="M42.6423 0.735274C44.0366 7.17762 42.678 16.4197 40.9937 22.1315C40.0959 25.1747 39.2117 27.2387 38.5469 28.5488C38.8087 29.2914 39.0281 29.9754 39.1939 30.5946C39.244 30.7872 39.2908 30.9659 39.3308 31.1335C39.636 30.7371 39.999 30.3364 40.4122 29.9909C41.2922 29.2595 42.2197 28.9279 43.1711 29.0151C45.0322 29.1826 46.1527 29.5065 47.1585 30.668C50.6469 20.6798 44.7661 5.21728 42.8582 0.663596C42.8047 0.535786 42.6176 0.597964 42.6465 0.732683L42.6431 0.736137L42.6423 0.735274Z" fill="#1C4772"/>
</g>
<path d="M62 80.0001C62 77.2384 50.3575 75 36 75C21.6425 75 10 77.2387 10 80.0001C10 82.7616 21.6425 85 36 85C50.3575 85 62 82.7613 62 80.0001Z" fill="#1C4772" fill-opacity="0.3"/>
<defs>
<clipPath id="clip0_357_1105">
<rect width="52.1" height="71.78" fill="white" transform="translate(10 8)"/>
</clipPath>
<clipPath id="clip1_357_1105">
<rect width="50" height="55" fill="white"/>
</clipPath>
</defs>
</svg>
