<svg width="100" height="100" viewBox="0 0 100 100" xmlns="http://www.w3.org/2000/svg">
    <!-- Background Color -->
    <rect x="0" y="0" width="100" height="100" fill="#d89bdf7d" />

    <!-- Vertical Lines (Doubled Density) -->
    <polygon points="5,0 7,0 7,100 5,100" fill="#E34DE6"/>
    <polygon points="15,0 17,0 17,100 15,100" fill="#E34DE6"/>
    <polygon points="25,0 27,0 27,100 25,100" fill="#E34DE6"/>
    <polygon points="35,0 37,0 37,100 35,100" fill="#E34DE6"/>
    <polygon points="45,0 47,0 47,100 45,100" fill="#E34DE6"/>
    <polygon points="55,0 57,0 57,100 55,100" fill="#E34DE6"/>
    <polygon points="65,0 67,0 67,100 65,100" fill="#E34DE6"/>
    <polygon points="75,0 77,0 77,100 75,100" fill="#E34DE6"/>
    <polygon points="85,0 87,0 87,100 85,100" fill="#E34DE6"/>
    <polygon points="95,0 97,0 97,100 95,100" fill="#E34DE6"/>

    <!-- Horizontal Lines (Doubled Density) -->
    <polygon points="0,5 100,5 100,7 0,7" fill="#E34DE6"/>
    <polygon points="0,15 100,15 100,17 0,17" fill="#E34DE6"/>
    <polygon points="0,25 100,25 100,27 0,27" fill="#E34DE6"/>
    <polygon points="0,35 100,35 100,37 0,37" fill="#E34DE6"/>
    <polygon points="0,45 100,45 100,47 0,47" fill="#E34DE6"/>
    <polygon points="0,55 100,55 100,57 0,57" fill="#E34DE6"/>
    <polygon points="0,65 100,65 100,67 0,67" fill="#E34DE6"/>
    <polygon points="0,75 100,75 100,77 0,77" fill="#E34DE6"/>
    <polygon points="0,85 100,85 100,87 0,87" fill="#E34DE6"/>
    <polygon points="0,95 100,95 100,97 0,97" fill="#E34DE6"/>
</svg>