<svg width="100" height="100" viewBox="0 0 100 100" xmlns="http://www.w3.org/2000/svg">
    <!-- Vertical Lines (Quadrupled Density) -->
    <polygon points="2.5,0 3.5,0 3.5,100 2.5,100" fill="#E34DE6"/>
    <polygon points="7.5,0 8.5,0 8.5,100 7.5,100" fill="#E34DE6"/>
    <polygon points="12.5,0 13.5,0 13.5,100 12.5,100" fill="#E34DE6"/>
    <polygon points="17.5,0 18.5,0 18.5,100 17.5,100" fill="#E34DE6"/>
    <polygon points="22.5,0 23.5,0 23.5,100 22.5,100" fill="#E34DE6"/>
    <polygon points="27.5,0 28.5,0 28.5,100 27.5,100" fill="#E34DE6"/>
    <polygon points="32.5,0 33.5,0 33.5,100 32.5,100" fill="#E34DE6"/>
    <polygon points="37.5,0 38.5,0 38.5,100 37.5,100" fill="#E34DE6"/>
    <polygon points="42.5,0 43.5,0 43.5,100 42.5,100" fill="#E34DE6"/>
    <polygon points="47.5,0 48.5,0 48.5,100 47.5,100" fill="#E34DE6"/>
    <polygon points="52.5,0 53.5,0 53.5,100 52.5,100" fill="#E34DE6"/>
    <polygon points="57.5,0 58.5,0 58.5,100 57.5,100" fill="#E34DE6"/>
    <polygon points="62.5,0 63.5,0 63.5,100 62.5,100" fill="#E34DE6"/>
    <polygon points="67.5,0 68.5,0 68.5,100 67.5,100" fill="#E34DE6"/>
    <polygon points="72.5,0 73.5,0 73.5,100 72.5,100" fill="#E34DE6"/>
    <polygon points="77.5,0 78.5,0 78.5,100 77.5,100" fill="#E34DE6"/>
    <polygon points="82.5,0 83.5,0 83.5,100 82.5,100" fill="#E34DE6"/>
    <polygon points="87.5,0 88.5,0 88.5,100 87.5,100" fill="#E34DE6"/>
    <polygon points="92.5,0 93.5,0 93.5,100 92.5,100" fill="#E34DE6"/>
    <polygon points="97.5,0 98.5,0 98.5,100 97.5,100" fill="#E34DE6"/>

    <!-- Horizontal Lines (Quadrupled Density) -->
    <polygon points="0,2.5 100,2.5 100,3.5 0,3.5" fill="#E34DE6"/>
    <polygon points="0,7.5 100,7.5 100,8.5 0,8.5" fill="#E34DE6"/>
    <polygon points="0,12.5 100,12.5 100,13.5 0,13.5" fill="#E34DE6"/>
    <polygon points="0,17.5 100,17.5 100,18.5 0,18.5" fill="#E34DE6"/>
    <polygon points="0,22.5 100,22.5 100,23.5 0,23.5" fill="#E34DE6"/>
    <polygon points="0,27.5 100,27.5 100,28.5 0,28.5" fill="#E34DE6"/>
    <polygon points="0,32.5 100,32.5 100,33.5 0,33.5" fill="#E34DE6"/>
    <polygon points="0,37.5 100,37.5 100,38.5 0,38.5" fill="#E34DE6"/>
    <polygon points="0,42.5 100,42.5 100,43.5 0,43.5" fill="#E34DE6"/>
    <polygon points="0,47.5 100,47.5 100,48.5 0,48.5" fill="#E34DE6"/>
    <polygon points="0,52.5 100,52.5 100,53.5 0,53.5" fill="#E34DE6"/>
    <polygon points="0,57.5 100,57.5 100,58.5 0,58.5" fill="#E34DE6"/>
    <polygon points="0,62.5 100,62.5 100,63.5 0,63.5" fill="#E34DE6"/>
    <polygon points="0,67.5 100,67.5 100,68.5 0,68.5" fill="#E34DE6"/>
    <polygon points="0,72.5 100,72.5 100,73.5 0,73.5" fill="#E34DE6"/>
    <polygon points="0,77.5 100,77.5 100,78.5 0,78.5" fill="#E34DE6"/>
    <polygon points="0,82.5 100,82.5 100,83.5 0,83.5" fill="#E34DE6"/>
    <polygon points="0,87.5 100,87.5 100,88.5 0,88.5" fill="#E34DE6"/>
    <polygon points="0,92.5 100,92.5 100,93.5 0,93.5" fill="#E34DE6"/>
    <polygon points="0,97.5 100,97.5 100,98.5 0,98.5" fill="#E34DE6"/>
</svg>